<svg width="30" height="34" viewBox="0 0 30 34" fill="none" xmlns="http://www.w3.org/2000/svg">
<g clip-path="url(#clip0_103_295)" filter="url(#filter0_d_103_295)">
<path d="M9.66838 25.5133C9.15576 25.1723 8.70144 24.7509 8.32288 24.2653C7.90646 23.7641 7.52063 23.2383 7.1675 22.6907C6.33882 21.4767 5.68894 20.1498 5.23781 18.7509C4.69588 17.1259 4.43344 15.5683 4.43344 14.0449C4.43344 12.3435 4.8015 10.8583 5.52138 9.61025C6.05501 8.6348 6.83959 7.81964 7.79394 7.24913C8.71881 6.67467 9.78151 6.36029 10.8701 6.33913C11.2511 6.33913 11.6614 6.39438 12.0969 6.5C12.4098 6.58856 12.7908 6.72831 13.2564 6.90219C13.8487 7.1305 14.1745 7.27025 14.285 7.30438C14.6319 7.43113 14.9236 7.48638 15.1528 7.48638C15.3266 7.48638 15.572 7.43113 15.8507 7.34663C16.0075 7.29138 16.3033 7.19388 16.7266 7.01269C17.1458 6.85994 17.4757 6.72913 17.7381 6.63163C18.1403 6.513 18.5295 6.40331 18.8764 6.34806C19.2877 6.28322 19.7051 6.26605 20.1204 6.29688C20.8399 6.34391 21.5487 6.49639 22.2239 6.74944C23.3281 7.19388 24.2211 7.88775 24.8857 8.87413C24.6048 9.04727 24.3411 9.24697 24.0984 9.4705C23.5699 9.93897 23.1198 10.4889 22.7651 11.0996C22.3014 11.9341 22.061 12.8741 22.0671 13.8288C22.0842 15.0012 22.3848 16.0339 22.9771 16.9268C23.4126 17.5886 23.9785 18.1545 24.6403 18.59C24.9791 18.8183 25.2708 18.9751 25.5503 19.0808C25.4195 19.487 25.2797 19.8803 25.1148 20.2703C24.7407 21.1448 24.2874 21.9833 23.7604 22.7752C23.2907 23.4569 22.9227 23.9647 22.6432 24.3027C22.2077 24.8186 21.7884 25.2127 21.3651 25.4873C20.8996 25.7961 20.3495 25.961 19.7905 25.961C19.4119 25.9755 19.0334 25.9297 18.6692 25.8253C18.3564 25.7197 18.0469 25.6051 17.7422 25.4743C17.4254 25.3288 17.0988 25.2058 16.7648 25.1063C15.939 24.8942 15.0732 24.8928 14.2468 25.1022C13.908 25.1997 13.5822 25.3134 13.2604 25.4532C12.8079 25.6433 12.5073 25.7709 12.3334 25.8253C11.9864 25.9269 11.6265 25.9903 11.2625 26.0114C10.6994 26.0114 10.1746 25.8505 9.65456 25.5247L9.66838 25.5133ZM17.0946 5.51363C16.3585 5.88169 15.6557 6.0385 14.9578 5.98731C14.8481 5.2845 14.9577 4.56544 15.2494 3.77813C15.4978 3.11112 15.8647 2.49453 16.3325 1.95813C16.8265 1.39346 17.426 0.93062 18.0973 0.595564C18.8123 0.227502 19.4939 0.0284394 20.1456 -0.000810623C20.2301 0.735314 20.1456 1.45925 19.875 2.24169C19.6246 2.93336 19.2584 3.57738 18.7919 4.14619C18.3159 4.71163 17.7316 5.17627 17.0735 5.51281L17.0946 5.51363Z" fill="#090808"/>
</g>
<defs>
<filter id="filter0_d_103_295" x="-2" y="0" width="34" height="34" filterUnits="userSpaceOnUse" color-interpolation-filters="sRGB">
<feFlood flood-opacity="0" result="BackgroundImageFix"/>
<feColorMatrix in="SourceAlpha" type="matrix" values="0 0 0 0 0 0 0 0 0 0 0 0 0 0 0 0 0 0 127 0" result="hardAlpha"/>
<feOffset dy="4"/>
<feGaussianBlur stdDeviation="2"/>
<feComposite in2="hardAlpha" operator="out"/>
<feColorMatrix type="matrix" values="0 0 0 0 0 0 0 0 0 0 0 0 0 0 0 0 0 0 0.25 0"/>
<feBlend mode="normal" in2="BackgroundImageFix" result="effect1_dropShadow_103_295"/>
<feBlend mode="normal" in="SourceGraphic" in2="effect1_dropShadow_103_295" result="shape"/>
</filter>
<clipPath id="clip0_103_295">
<rect width="26" height="26" fill="white" transform="translate(2)"/>
</clipPath>
</defs>
</svg>
