<svg width="62" height="62" viewBox="0 0 62 62" fill="none" xmlns="http://www.w3.org/2000/svg">
<g filter="url(#filter0_d_103_335)">
<path d="M30.9084 50.1375C18.0745 50.1375 7.67972 39.7427 7.67972 26.9089C7.67972 14.0751 18.0745 3.68024 30.9084 3.68024C43.7422 3.68024 54.137 14.0751 54.137 26.9089C54.137 39.7427 43.7422 50.1375 30.9084 50.1375Z" fill="url(#paint0_linear_103_335)"/>
<path d="M24.4372 18.2926C22.9054 19.5651 21.7036 21.2383 21.0673 23.1707C20.7138 24.2075 20.5253 25.3387 20.5253 26.4934V39.0539C20.5253 40.1379 19.6533 41.0098 18.5693 41.0098C17.4853 41.0098 16.6134 40.1379 16.6134 39.0539V26.4934C16.6134 22.6758 18.098 19.1881 20.5017 16.6194C22.1513 14.852 24.2486 13.4852 26.6052 12.7311C27.8777 12.3069 29.1739 13.2495 29.1739 14.5692C29.1739 15.4176 28.6319 16.1481 27.8306 16.4309C26.5816 16.8079 25.4269 17.4678 24.4372 18.2926Z" fill="white"/>
<path d="M45.6459 26.3992C45.693 34.3408 39.236 40.9156 31.2944 40.9863C31.2473 40.9863 31.1766 40.9863 31.1295 40.9863C27.4297 40.9863 24.4368 37.9699 24.4368 34.2701V26.5877C24.4368 26.5641 24.4368 26.517 24.4368 26.4934C24.4368 22.6287 27.7124 19.518 31.6243 19.8008C34.9471 20.0364 37.6336 22.7465 37.8457 26.0692C37.9871 28.3551 36.9737 30.4289 35.3477 31.725C34.0987 32.7383 32.2135 31.7957 32.2135 30.1932C32.2135 29.6041 32.4727 29.0621 32.9204 28.685C33.5803 28.143 33.9809 27.3182 33.9573 26.4227C33.9102 24.9616 32.7319 23.7598 31.2708 23.6891C29.6448 23.6184 28.3016 24.9145 28.3016 26.517C28.3016 26.5405 28.3016 26.5877 28.3016 26.6112V34.0816C28.3016 35.7783 29.692 37.1687 31.3887 37.1215C31.4122 37.1215 31.4594 37.1215 31.4829 37.1215C36.8795 36.933 41.3334 32.644 41.7104 27.2475C42.0403 22.228 38.8826 17.892 34.4051 16.4309C33.6038 16.1717 33.0618 15.4411 33.0618 14.6163V14.5456C33.0618 13.2495 34.3108 12.3069 35.5598 12.7075C41.3805 14.5456 45.5988 19.9657 45.6459 26.3992Z" fill="white"/>
<path d="M56.818 26.9089C56.818 41.218 45.2182 52.8178 30.9091 52.8178C16.6 52.8178 5.00021 41.218 5.00021 26.9089C5.00021 12.5998 16.6 1 30.9091 1C45.2182 1 56.818 12.5998 56.818 26.9089Z" stroke="#F58220" stroke-width="2"/>
</g>
<defs>
<filter id="filter0_d_103_335" x="0.000213623" y="0" width="61.8177" height="61.8177" filterUnits="userSpaceOnUse" color-interpolation-filters="sRGB">
<feFlood flood-opacity="0" result="BackgroundImageFix"/>
<feColorMatrix in="SourceAlpha" type="matrix" values="0 0 0 0 0 0 0 0 0 0 0 0 0 0 0 0 0 0 127 0" result="hardAlpha"/>
<feOffset dy="4"/>
<feGaussianBlur stdDeviation="2"/>
<feComposite in2="hardAlpha" operator="out"/>
<feColorMatrix type="matrix" values="0 0 0 0 0 0 0 0 0 0 0 0 0 0 0 0 0 0 0.25 0"/>
<feBlend mode="normal" in2="BackgroundImageFix" result="effect1_dropShadow_103_335"/>
<feBlend mode="normal" in="SourceGraphic" in2="effect1_dropShadow_103_335" result="shape"/>
</filter>
<linearGradient id="paint0_linear_103_335" x1="7.67972" y1="26.9089" x2="54.137" y2="26.9089" gradientUnits="userSpaceOnUse">
<stop stop-color="#F58220"/>
<stop offset="1" stop-color="#EB7816"/>
</linearGradient>
</defs>
</svg>
